<svg xmlns="http://www.w3.org/2000/svg" viewBox="0 0 512 512">
  <rect width="512" height="512" rx="112" fill="#172033"/>
  <circle cx="256" cy="256" r="164" fill="#3DCC91"/>
  <path fill="#172033" d="M166 314c0-42 34-76 76-76h28c42 0 76 34 76 76v24H166v-24Z"/>
  <circle cx="220" cy="202" r="34" fill="#172033"/>
  <circle cx="292" cy="202" r="34" fill="#172033"/>
  <path fill="#fff" d="M256 382c-80 0-146-66-146-146S176 90 256 90s146 66 146 146-66 146-146 146Zm0-252c-58 0-106 48-106 106s48 106 106 106 106-48 106-106-48-106-106-106Z"/>
</svg>
